@startuml
'skinparam monochrome true
skinparam packageStyle rectangle
skinparam shadowing false
skinparam linetype polyline
'skinparam linetype orto
skinparam classAttributeIconSize 0
'left to right direction

Title US007 - Class Diagram

Repositories -> Repositories : instance


Repositories --> "1" VehicleRepository
Repositories --> "1" CheckupRepository

VehicleRepository --> "*" VehicleCheckup

VehicleCheckup ..> Date : checkupDate
RegisterCheckupController ..> Repositories : repositories
RegisterCheckupUI ..> RegisterCheckupController
RegisterCheckupController ..> VehicleRepository : vehicleRepository
RegisterCheckupController ..> CheckupRepository : checkupRepository

class RegisterCheckupUI {
    -RegisterCheckupController controller
    -Vehicle vehicle
    -String checkupDate
    -int checkupKm
    +RegisterCheckupUI()
    -getController(): RegisterCheckupController
    -submitData()
    -showAllDataForConfirmation(Vehicle vehicle, String checkupDate, int checkupKm)
    -requestData()
    -requestCheckupDate(): String
    -validateDate(Date date): boolean
    -requestCheckupKm(): int
    -validateCheckupKms(int checkupKm): boolean
    -displayAndSelectVehicle(): Vehicle
    -validateIndex(int answer, int numberOfVehicles): boolean
    -displayVehicleOptions(List<Vehicle> vehicleList)
}

class RegisterCheckupController {
    -CheckupRepository checkupRepository
    -VehicleRepository vehicleRepository
    +RegisterCheckupController()
    +RegisterCheckupController(CheckupRepository checkupRepository, VehicleRepository vehicleRepository)
    +getCheckupRepository(): CheckupRepository
    +getVehicleRepository(): VehicleRepository
    +registerVehicleCheckup(Vehicle vehicle, String checkupDate, int checkupKm): Optional<VehicleCheckup>
    +getVehicles(): List<Vehicle>
}

class Repositories {
    -Repositories()
    + getInstance()
    + getVehicleRepository()
    + getCheckupRepository()
}

class VehicleRepository {
    - List<Vehicle> vehicles
    + registerVehicle(vehicle)
    + getVehicles()
}

class CheckupRepository {
    + registerVehicleCheckup(vehicle, checkupDate, checkupKm)
    + addCheckup(vehicleCheckup)
     validateCheckup(vehicleCheckup)
}

class VehicleCheckup {
    - Vehicle vehicle
    - Date checkupDate
    - int checkupKm
    + VehicleCheckup(vehicle, checkupDate, checkupKm)
    - validateCheckupKm()
    - validateCheckupDate(checkupDate)
}

class Date {
    - int day
    - int month
    - int year
    - validateDate(checkupDate)
}

@enduml
